<?xml version="1.0" encoding="UTF-8" standalone="no"?>
<!-- Created with Inkscape (http://www.inkscape.org/) and manually edited by Cies Breijs -->
<svg
   xmlns:dc="http://purl.org/dc/elements/1.1/"
   xmlns:cc="http://creativecommons.org/ns#"
   xmlns:rdf="http://www.w3.org/1999/02/22-rdf-syntax-ns#"
   xmlns:svg="http://www.w3.org/2000/svg"
   xmlns="http://www.w3.org/2000/svg"
   xmlns:sodipodi="http://sodipodi.sourceforge.net/DTD/sodipodi-0.dtd"
   xmlns:inkscape="http://www.inkscape.org/namespaces/inkscape"
   width="20"
   height="20"
   id="svg2"
   version="1.0"
   sodipodi:version="0.32"
   inkscape:version="0.46"
   sodipodi:docname="button_subscribe.svg"
   inkscape:output_extension="org.inkscape.output.svg.inkscape">
  <defs
     id="defs2561">
    <inkscape:perspective
       sodipodi:type="inkscape:persp3d"
       inkscape:vp_x="0 : 10 : 1"
       inkscape:vp_y="0 : 1000 : 0"
       inkscape:vp_z="20 : 10 : 1"
       inkscape:persp3d-origin="10 : 6.6666667 : 1"
       id="perspective2563" />
  </defs>
  <sodipodi:namedview
     inkscape:window-height="779"
     inkscape:window-width="1234"
     inkscape:pageshadow="2"
     inkscape:pageopacity="0.0"
     guidetolerance="10.0"
     gridtolerance="10.0"
     objecttolerance="10.0"
     borderopacity="1.0"
     bordercolor="#666666"
     pagecolor="#ffffff"
     id="base"
     showgrid="true"
     inkscape:snap-global="false"
     inkscape:zoom="26.5"
     inkscape:cx="10.041669"
     inkscape:cy="9.298095"
     inkscape:window-x="42"
     inkscape:window-y="-4"
     inkscape:current-layer="svg2"
     showguides="true"
     inkscape:guide-bbox="true">
    <inkscape:grid
       type="xygrid"
       id="grid2565" />
  </sodipodi:namedview>
  <metadata
     id="metadata">
    <rdf:RDF>
      <cc:Work
         rdf:about="">
        <dc:format>image/svg+xml</dc:format>
        <dc:type
           rdf:resource="http://purl.org/dc/dcmitype/StillImage" />
        <cc:license
           rdf:resource="http://creativecommons.org/licenses/by-nc-sa/2.5/" />
        <dc:creator>
          <cc:Agent>
            <dc:title>Cies Breijs</dc:title>
          </cc:Agent>
        </dc:creator>
      </cc:Work>
      <cc:License
         rdf:about="http://creativecommons.org/licenses/by-nc-sa/2.5/">
        <cc:permits
           rdf:resource="http://web.resource.org/cc/Reproduction" />
        <cc:permits
           rdf:resource="http://web.resource.org/cc/Distribution" />
        <cc:requires
           rdf:resource="http://web.resource.org/cc/Notice" />
        <cc:requires
           rdf:resource="http://web.resource.org/cc/Attribution" />
        <cc:prohibits
           rdf:resource="http://web.resource.org/cc/CommercialUse" />
        <cc:permits
           rdf:resource="http://web.resource.org/cc/DerivativeWorks" />
        <cc:requires
           rdf:resource="http://web.resource.org/cc/ShareAlike" />
      </cc:License>
    </rdf:RDF>
  </metadata>
  <path
     style="fill:#000000;fill-opacity:1;stroke:none"
     d="M 0 0 L 0 20 L 20 20 L 20 0 L 0 0 z M 10.0625 1.90625 C 10.326966 1.9451419 10.573012 2.1543016 10.65625 2.4375 L 12.28125 7.15625 L 17.1875 7.375 C 17.466129 7.3997404 17.689386 7.5981335 17.78125 7.875 C 17.873113 8.1518665 17.797591 8.4555859 17.59375 8.65625 L 13.78125 11.84375 L 15.09375 16.75 C 15.148821 17.038962 15.04278 17.331016 14.8125 17.5 C 14.58222 17.668984 14.271395 17.684403 14.03125 17.53125 L 10.0625 14.6875 L 6.03125 17.5625 C 5.7837923 17.779605 5.4188293 17.821619 5.15625 17.625 C 4.8936706 17.428382 4.7906014 17.065803 4.90625 16.75 L 6.28125 11.84375 L 2.40625 8.71875 C 2.1620957 8.5270706 2.0597908 8.2096085 2.15625 7.90625 C 2.2527092 7.6028917 2.5387191 7.3747733 2.84375 7.375 L 7.65625 7.21875 L 9.3125 2.4375 C 9.3805891 2.1962766 9.5511437 2.0088788 9.78125 1.9375 C 9.8726139 1.9133368 9.9743446 1.893286 10.0625 1.90625 z "
     id="black_rectange_with_a_hole_in_it" />
</svg>
